<svg width="173" height="136" viewBox="0 0 173 136" fill="none" xmlns="http://www.w3.org/2000/svg">
<path d="M37.1663 88.2629C37.1663 88.2629 61.7717 40.6282 80.2477 19.0875C82.787 16.1103 86.0269 15.6725 88.3035 17.1611C91.018 18.9124 91.1056 24.9543 91.1056 24.9543C91.1056 24.9543 98.1107 20.9264 101.526 21.802C104.941 22.6776 105.291 27.9315 105.291 27.9315C105.291 27.9315 112.821 25.4797 115.886 28.1066C118.951 30.7335 119.038 35.5495 119.038 35.5495C119.038 35.5495 158.617 4.20167 162.908 1.57476C167.286 -1.05216 175.079 3.67627 171.226 9.19279C168.862 12.6953 148.81 32.2221 142.418 38.5267C136.026 44.8313 120.877 61.6435 119.214 66.6347C117.55 71.6258 116.061 77.2299 126.394 77.9304C136.726 78.6309 145.833 80.4697 150.299 84.1474C154.764 87.8251 157.742 93.6043 155.465 94.6551C153.188 95.7058 116.937 91.6779 103.189 97.1944C89.4419 102.711 71.4913 122.938 71.4913 122.938L37.1663 88.2629Z" fill="white"/>
<path d="M71.4908 123.638C71.3157 123.638 71.1405 123.551 71.053 123.463L36.7279 88.7005C36.5528 88.5254 36.4653 88.2627 36.6404 88C36.9031 87.5622 61.5085 40.015 79.8093 18.737C82.4363 15.7599 85.9388 14.8842 88.6533 16.723C90.9299 18.2116 91.4553 22.152 91.6305 23.9909C93.6444 22.9401 98.7231 20.4883 101.613 21.1888C104.502 21.8893 105.466 25.4794 105.728 27.0556C107.742 26.5302 113.434 25.2167 116.236 27.581C118.6 29.5949 119.301 32.6597 119.563 34.3234C125.605 29.5074 158.617 3.41335 162.645 1.04913C165.534 -0.70215 169.475 0.523732 171.401 2.62526C173.24 4.55167 173.415 7.52886 171.751 9.54283C169.3 13.0454 149.685 32.3094 142.855 38.9642C136.113 45.444 121.402 62.0811 119.826 66.8096C118.863 69.6116 117.987 72.5888 119.388 74.6027C120.439 76.1789 122.803 77.0545 126.481 77.3172C138.477 78.1053 146.621 80.2944 150.736 83.7094C154.414 86.7741 157.216 91.2399 156.866 93.6041C156.778 94.3046 156.428 94.9175 155.815 95.2678C155.027 95.7056 152.049 95.5305 145.395 95.2678C133.223 94.83 112.821 94.0419 103.452 97.8071C89.9668 103.236 72.1037 123.201 71.9286 123.463C71.7535 123.551 71.5784 123.638 71.4908 123.638ZM37.9538 88.1751L71.4908 122.15C74.3804 118.998 90.2294 101.835 103.014 96.6688C112.646 92.816 133.223 93.6041 145.482 94.0419C150.211 94.217 154.589 94.3921 155.289 94.1295C155.552 93.9543 155.727 93.6916 155.727 93.429C155.902 91.6777 153.626 87.6497 149.948 84.585C146.008 81.3451 138.127 79.3312 126.393 78.4555C122.278 78.1928 119.651 77.1421 118.425 75.2157C116.761 72.7639 117.637 69.524 118.775 66.3717C120.614 61.0303 136.113 43.8678 142.155 38.0011C148.722 31.6965 168.599 12.1697 170.876 8.75473C172.627 6.21538 171.489 4.28899 170.613 3.32579C168.949 1.57451 165.622 0.611312 163.345 2.01233C159.055 4.63925 119.914 35.6368 119.476 35.9871C119.301 36.1622 119.038 36.1622 118.863 36.0747C118.688 35.9871 118.513 35.7244 118.513 35.5493C118.513 35.4617 118.425 30.9959 115.535 28.5442C112.646 26.0924 105.553 28.4566 105.553 28.4566C105.203 28.5442 104.853 28.369 104.765 28.1063C104.765 28.0188 104.765 28.0188 104.765 27.9312C104.765 27.8437 104.415 23.1152 101.438 22.4147C98.8983 21.8017 93.3817 24.4287 91.4553 25.567C91.1051 25.7421 90.7548 25.567 90.6673 25.2167C90.6673 25.1292 90.5797 25.0416 90.5797 25.0416C90.5797 23.4655 90.0543 19.0873 88.0403 17.7738C85.8512 16.3728 82.9616 17.0733 80.8601 19.5251C63.4349 39.6648 40.4056 83.5342 37.9538 88.1751Z" fill="#231F20"/>
<path d="M76.2195 135.197L89.6167 111.204C89.6167 111.204 38.1292 74.9526 37.166 74.4272C36.2028 73.9018 1.43994 134.846 1.43994 134.846L4.06686 135.109L76.2195 135.197Z" fill="#231F20"/>
<path d="M76.2194 135.897H4.15441L1.43993 135.635C1.2648 135.635 1.08968 135.459 0.91455 135.284C0.826986 135.109 0.826986 134.847 0.91455 134.671C1.00211 134.496 9.67093 119.26 18.4273 104.287C36.3779 73.3767 36.7281 73.6394 37.4287 73.9897C38.3919 74.5151 84.6255 107.089 89.9669 110.766C90.2296 110.942 90.3172 111.292 90.1421 111.555L76.7448 135.547C76.6572 135.722 76.4821 135.897 76.2194 135.897ZM2.4907 134.409L4.24198 134.584H75.8692L88.8286 111.467C71.9288 99.5583 41.0188 77.8425 37.2535 75.3031C34.5391 78.8057 15.3626 111.817 2.4907 134.409Z" fill="#231F20"/>
</svg>
