<svg width="182" height="188" viewBox="0 0 182 188" fill="none" xmlns="http://www.w3.org/2000/svg">
<path d="M25.3612 113.547L1.71899 176.155L61.0873 186.75C62.0505 184.124 64.152 182.285 65.6406 182.635L72.5581 184.211C73.1711 184.299 73.9592 183.773 74.397 182.81C74.7472 182.11 74.9223 181.409 74.9223 180.621C74.9223 180.271 74.6597 179.92 74.3094 179.745L63.1888 176.681C62.751 176.505 62.4883 176.155 62.4007 175.717C62.3132 175.104 62.4007 174.404 62.6634 173.879C63.1888 172.478 64.2396 171.602 65.1152 171.865L66.6914 172.302L72.7333 174.229C73.6089 174.492 74.8348 173.441 75.3602 171.952C75.6229 171.339 75.7104 170.726 75.6229 170.026C75.6229 169.5 75.3602 169.063 74.9223 168.887L63.1012 164.509C62.6634 164.334 62.3132 163.809 62.3132 163.371C62.2256 162.495 62.3132 161.62 62.8385 160.832C63.4515 159.693 64.4147 159.168 65.2028 159.431L81.1394 166.085C81.8399 166.436 82.8906 165.472 83.416 164.071C83.9414 162.67 83.8539 161.269 83.0658 160.919L71.9452 155.665C71.5074 155.403 71.2447 154.965 71.2447 154.439C71.1571 153.739 71.2447 153.126 71.5074 152.513C72.0327 151.112 73.0835 150.411 73.784 150.762L74.7472 151.287L81.2269 154.702C81.8399 155.052 82.9782 154.877 83.7663 153.038C85.0798 150.061 83.7663 149.186 83.416 149.01L77.199 144.983L25.3612 113.547Z" fill="white"/>
<path d="M25.3611 113.547L77.0238 144.72L83.2408 148.748C83.591 148.923 84.9045 149.886 83.591 152.775C82.9781 154.176 82.19 154.614 81.5771 154.614C81.402 154.614 81.1393 154.527 81.0517 154.439L74.572 150.937L73.6088 150.411C73.5212 150.324 73.3461 150.324 73.171 150.324C72.4704 150.324 71.6824 151.024 71.3321 152.163C71.0694 152.775 70.9819 153.476 71.0694 154.089C71.0694 154.614 71.3321 155.052 71.7699 155.315L82.8905 160.569C83.591 160.919 83.7662 162.32 83.2408 163.721C82.803 164.947 81.9273 165.822 81.2268 165.822C81.1393 165.822 81.0517 165.822 80.9641 165.735L65.0275 159.08C64.8524 158.992 64.7648 158.992 64.5897 158.992C63.7141 159.08 63.0135 159.693 62.6633 160.481C62.2255 161.269 62.0504 162.145 62.1379 163.02C62.1379 163.546 62.4882 163.984 62.926 164.159L74.7471 168.537C75.1849 168.712 75.4476 169.237 75.4476 169.675C75.5352 170.288 75.4476 170.989 75.1849 171.602C74.6595 173.003 73.6963 173.966 72.8207 173.966C72.7331 173.966 72.6456 173.966 72.558 173.966L66.5161 172.039L64.94 171.602C64.8524 171.602 64.7648 171.514 64.6773 171.602C63.8892 171.602 63.0136 172.477 62.5757 173.703C62.313 174.316 62.2255 174.929 62.313 175.542C62.313 175.98 62.6633 176.418 63.1011 176.505L74.2217 179.57C74.572 179.745 74.8347 180.095 74.8347 180.446C74.9222 181.234 74.7471 181.934 74.3093 182.635C74.0466 183.335 73.3461 183.861 72.6456 184.036H72.4704L65.5529 182.46C65.4653 182.46 65.2902 182.46 65.2027 182.46C63.7141 182.46 61.8752 184.211 60.9996 186.575L1.63131 175.98L25.3611 113.547ZM25.3611 112.409C24.9233 112.409 24.4855 112.671 24.3103 113.109L0.668113 175.717C0.580549 176.067 0.580548 176.418 0.755675 176.68C0.930803 176.943 1.1935 177.206 1.54375 177.206L60.912 187.801C60.9996 187.801 60.9996 187.801 61.0871 187.801C61.525 187.801 61.9628 187.538 62.1379 187.1C63.0136 184.824 64.5021 183.685 65.2902 183.685H65.3778L72.2953 185.174C72.4704 185.174 72.558 185.262 72.7331 185.174C73.959 185.087 74.9222 184.298 75.4476 183.16C75.973 182.284 76.1481 181.321 76.0606 180.27C75.973 179.395 75.4476 178.694 74.6595 178.432L63.6265 175.454C63.6265 175.367 63.6265 175.367 63.5389 175.279C63.4514 174.842 63.5389 174.404 63.7141 174.053C63.8892 173.441 64.2394 173.003 64.7648 172.74L66.341 173.178L72.3829 175.017C72.558 175.104 72.8207 175.104 72.9958 175.104C74.3968 175.104 75.7103 173.791 76.4108 172.039C76.6735 171.251 76.7611 170.463 76.6735 169.588C76.6735 168.712 76.0606 167.836 75.2725 167.486L63.4514 163.108C63.4514 163.02 63.3638 162.933 63.3638 162.758C63.2762 162.145 63.4514 161.532 63.7141 160.919C64.0643 160.306 64.5021 160.043 64.5897 160.043L80.5263 166.698C80.789 166.786 81.0517 166.873 81.2268 166.873C82.4527 166.873 83.591 165.822 84.2915 164.071C85.0796 161.97 84.7294 160.043 83.4159 159.518L72.3829 154.176C72.3829 154.176 72.2953 154.089 72.2953 153.826C72.2077 153.388 72.2953 152.863 72.4704 152.425C72.558 151.987 72.9083 151.55 73.2585 151.287L74.2217 151.725L80.6139 155.14C80.9641 155.315 81.3144 155.402 81.6646 155.402C82.2776 155.402 83.6786 155.14 84.6418 152.863C86.218 149.273 84.5542 147.872 83.8537 147.434L77.6367 143.406L25.9741 112.233C25.7114 112.409 25.5362 112.321 25.3611 112.409Z" fill="#231F20"/>
<path d="M43.3995 166.523C43.3119 166.523 43.3119 166.523 43.2243 166.523C43.0492 166.436 42.9617 166.348 42.8741 166.173L25.2738 115.386C25.1862 115.123 25.3613 114.773 25.624 114.685C25.8867 114.598 26.237 114.773 26.3245 115.036L43.6622 165.21L75.8856 144.807C76.1483 144.632 76.4986 144.807 76.6737 145.07C76.7613 145.333 76.7613 145.595 76.4986 145.771L43.6622 166.523C43.6622 166.523 43.5746 166.523 43.3995 166.523Z" fill="#231F20"/>
<path d="M1.71879 176.68C1.54366 176.68 1.36854 176.593 1.19341 176.418C1.01828 176.155 1.10584 175.805 1.36853 175.63L39.1961 154.177C39.4588 154.001 39.8091 154.089 39.9842 154.352C40.1593 154.614 40.0718 154.965 39.8091 155.14H39.7215L1.89392 176.593C1.89392 176.68 1.80635 176.68 1.71879 176.68Z" fill="#231F20"/>
<path d="M60.9997 187.363C60.737 187.363 60.5619 187.188 60.4743 186.925L52.5936 159.955C52.506 159.693 52.6811 159.343 52.9438 159.255C53.2065 159.167 53.5568 159.343 53.6443 159.605L61.5251 186.575C61.6126 186.838 61.4375 187.188 61.1748 187.275C61.1748 187.363 61.0873 187.363 60.9997 187.363Z" fill="#231F20"/>
<path d="M109.51 1.55273L15.9917 88.1533L108.021 156.803C111.962 153.213 117.04 151.812 119.317 153.651L129.737 162.145C130.613 162.845 132.364 162.583 134.115 161.357C135.341 160.569 136.217 159.43 136.83 158.029C137.18 157.329 137.005 156.541 136.567 156.015L120.193 141.392C119.58 140.779 119.405 139.816 119.755 139.028C120.105 137.89 120.806 136.839 121.769 136.051C123.87 134.124 126.41 133.511 127.636 134.65L129.912 136.751L138.581 145.07C139.807 146.296 142.784 145.508 144.973 143.406C145.849 142.53 146.549 141.567 146.987 140.341C147.425 139.466 147.337 138.503 146.725 137.802L130.262 120.289C129.65 119.501 129.562 118.538 129.825 117.662C130.35 116.086 131.401 114.685 132.802 113.722C134.816 112.321 136.917 112.233 137.968 113.372L159.509 138.327C160.472 139.466 163.011 138.765 165.113 136.839C167.214 134.912 168.178 132.373 167.302 131.147L152.942 112.671C152.416 111.883 152.416 110.92 152.766 110.044C153.204 108.818 153.905 107.768 154.868 106.892C156.882 104.966 159.334 104.528 160.297 105.841L161.523 107.505L169.579 118.888C170.367 119.939 172.381 120.727 175.358 118.188C180.086 114.247 178.598 111.62 178.16 110.92L170.98 98.661L109.51 1.55273Z" fill="#DD5928"/>
<path d="M109.51 1.55272L171.067 98.5734L178.248 110.832C178.685 111.533 180.174 114.16 175.446 118.1C174.482 119.063 173.169 119.676 171.768 119.764C170.98 119.764 170.192 119.414 169.666 118.801L161.61 107.417L160.385 105.754C160.034 105.228 159.421 104.966 158.721 104.966C157.32 105.053 155.919 105.666 154.956 106.717C153.992 107.593 153.292 108.643 152.854 109.869C152.504 110.745 152.504 111.708 153.029 112.496L167.39 130.972C168.353 132.198 167.302 134.737 165.201 136.664C164.062 137.802 162.574 138.503 160.998 138.678C160.472 138.678 159.947 138.503 159.597 138.152L138.056 113.284C137.53 112.759 136.83 112.496 136.129 112.496C134.991 112.584 133.853 112.934 132.977 113.634C131.576 114.598 130.525 115.999 130 117.575C129.65 118.45 129.825 119.414 130.438 120.202L146.9 137.714C147.425 138.503 147.6 139.466 147.162 140.254C146.725 141.392 146.024 142.443 145.148 143.319C143.923 144.632 142.171 145.42 140.42 145.595C139.807 145.595 139.194 145.42 138.756 145.07L130.088 136.751L127.811 134.65C127.373 134.299 126.848 134.037 126.235 134.124C123.345 134.475 120.981 136.401 120.018 139.115C119.667 139.904 119.843 140.867 120.455 141.48L136.83 156.103C137.355 156.628 137.443 157.416 137.093 158.117C136.567 159.43 135.604 160.656 134.378 161.444C133.502 162.145 132.452 162.583 131.313 162.583C130.876 162.583 130.438 162.495 130 162.232L119.492 153.739C118.704 153.126 117.741 152.863 116.778 152.951C114.238 152.951 110.911 154.352 108.197 156.891L16.0794 88.3285L109.51 1.55272ZM109.51 0.501953C109.247 0.501953 108.985 0.58952 108.722 0.764647L15.2038 87.3653C14.9411 87.628 14.8535 87.8907 14.8535 88.2409C14.8535 88.5912 15.0286 88.8539 15.2913 89.029L107.408 157.679C107.846 158.029 108.459 157.942 108.809 157.591C111.261 155.402 114.238 153.914 116.603 153.914C117.303 153.914 118.091 154.089 118.617 154.527L129.037 163.02C129.562 163.458 130.263 163.633 130.963 163.633C132.364 163.546 133.59 163.108 134.728 162.232C136.129 161.269 137.18 159.956 137.793 158.38C138.231 157.329 138.056 156.015 137.18 155.14L120.806 140.517C120.455 140.166 120.631 139.553 120.718 139.291C121.506 137.102 123.52 135.438 125.884 135.088C126.147 135.088 126.497 135.175 126.673 135.35L128.949 137.452L137.618 145.77C138.318 146.383 139.194 146.646 140.07 146.646C142.171 146.471 144.185 145.595 145.586 144.019C146.637 143.056 147.425 141.918 147.863 140.604C148.388 139.378 148.213 137.977 147.338 136.926L130.876 119.414C130.525 118.976 130.525 118.363 130.7 117.837C131.138 116.436 132.101 115.298 133.24 114.51C133.94 113.985 134.816 113.634 135.779 113.547C136.217 113.547 136.567 113.634 136.917 113.897L158.458 138.853C159.071 139.466 159.859 139.816 160.735 139.816C162.661 139.641 164.413 138.853 165.726 137.452C168.353 135 169.316 131.935 168.003 130.272L153.642 111.796C153.379 111.27 153.379 110.745 153.642 110.219C153.992 109.169 154.605 108.293 155.481 107.593C156.269 106.717 157.32 106.191 158.458 106.104C158.721 106.104 158.984 106.191 159.159 106.367L160.385 108.118L168.44 119.414C169.141 120.377 170.279 120.902 171.418 120.902C173.081 120.815 174.657 120.114 175.883 118.976C180.962 114.773 179.736 111.445 178.948 110.307L171.768 98.1356L110.386 1.02733C110.211 0.764643 109.948 0.589517 109.598 0.501953H109.51Z" fill="#231F20"/>
<path d="M95.7624 106.892C95.5872 106.892 95.4997 106.804 95.3245 106.717C95.237 106.629 95.1494 106.454 95.1494 106.279L108.459 4.70507C108.459 4.44238 108.809 4.17969 109.072 4.17969C109.422 4.17969 109.597 4.52994 109.597 4.79263L96.4629 105.666L169.316 98.2232C169.666 98.2232 169.841 98.4859 169.929 98.7486C169.929 99.0113 169.754 99.274 169.491 99.274L95.9375 106.717L95.7624 106.892Z" fill="#231F20"/>
<path d="M15.9917 88.7663C15.729 88.7663 15.4663 88.5036 15.4663 88.2409C15.4663 87.9782 15.729 87.7155 15.9917 87.6279L98.7395 83.2498C99.0022 83.2498 99.2649 83.4249 99.3525 83.6876C99.3525 83.6876 99.3525 83.6876 99.3525 83.7751C99.3525 84.1254 99.1773 84.3881 98.8271 84.3881L15.9917 88.7663Z" fill="#231F20"/>
<path d="M108.022 157.328H107.934C107.671 157.241 107.409 156.978 107.496 156.716L117.041 104.002C117.128 103.739 117.391 103.477 117.654 103.564C117.916 103.652 118.179 103.915 118.091 104.177L108.547 156.891C108.547 157.153 108.284 157.328 108.022 157.328Z" fill="#231F20"/>
<path d="M148.388 171.864C148.301 171.864 148.126 171.864 148.038 171.777L96.9884 134.562C96.7257 134.387 96.7257 134.037 96.9009 133.774C97.076 133.511 97.4262 133.511 97.6889 133.687L148.739 170.901C149.001 171.076 149.089 171.427 148.826 171.689C148.739 171.777 148.564 171.864 148.388 171.864Z" fill="white"/>
<path d="M155.393 157.329C155.218 157.329 155.131 157.241 154.955 157.153L138.056 139.466C137.881 139.203 137.881 138.853 138.056 138.677C138.318 138.502 138.669 138.502 138.844 138.677L155.744 156.365C155.919 156.541 155.919 156.978 155.744 157.153C155.744 157.329 155.568 157.329 155.393 157.329Z" fill="white"/>
<path d="M166.514 156.103C166.339 156.103 166.251 156.016 166.076 155.928L155.656 145.158C155.481 144.983 155.481 144.545 155.656 144.37C155.831 144.195 156.182 144.107 156.444 144.37L166.864 155.14C167.04 155.315 167.127 155.665 166.864 155.928C166.777 156.016 166.689 156.103 166.514 156.103Z" fill="white"/>
<path d="M176.584 150.674C176.409 150.674 176.234 150.587 176.146 150.499C166.339 137.977 151.366 119.151 150.665 118.363C150.402 118.188 150.315 117.925 150.49 117.663C150.49 117.663 150.49 117.663 150.49 117.575C150.665 117.312 151.015 117.225 151.278 117.4C151.891 117.75 167.653 137.802 177.022 149.711C177.197 149.974 177.197 150.324 176.934 150.499C176.759 150.674 176.672 150.674 176.584 150.674Z" fill="white"/>
<path d="M153.905 165.647C153.817 165.647 153.642 165.647 153.555 165.56L143.31 158.029C143.047 157.941 142.872 157.591 143.047 157.329C143.135 157.066 143.485 156.891 143.748 157.066C143.835 157.066 143.923 157.153 143.923 157.241L154.168 164.771C154.43 164.947 154.518 165.297 154.255 165.56C154.255 165.56 154.08 165.647 153.905 165.647Z" fill="white"/>
<path d="M181.137 132.286C180.962 132.286 180.787 132.198 180.699 132.023L166.864 110.92C166.689 110.658 166.777 110.307 167.039 110.132C167.302 109.957 167.652 110.045 167.827 110.307L181.663 131.41C181.838 131.673 181.75 132.023 181.487 132.198C181.312 132.198 181.225 132.286 181.137 132.286Z" fill="white"/>
<path d="M149.264 11.0095L111.086 30.7989L134.904 61.3587C136.48 60.5706 138.319 60.5706 138.844 61.3587L141.471 65.0364C141.646 65.3867 142.259 65.3867 142.959 65.124C143.397 64.9488 143.835 64.6861 144.098 64.3359C144.273 64.1608 144.273 63.8981 144.185 63.6354L140.157 57.4184C139.982 57.1557 140.07 56.8054 140.245 56.6303C140.508 56.28 140.77 56.0173 141.121 55.8422C141.996 55.4044 142.872 55.4044 143.135 55.9298L143.66 56.8054L145.761 60.3079C146.024 60.8333 147.075 60.8333 147.951 60.3079C148.301 60.1328 148.651 59.8701 148.914 59.5199C149.089 59.2572 149.176 58.9069 149.089 58.6442L145.324 51.464C145.236 51.2013 145.236 50.8511 145.411 50.5884C145.761 50.1506 146.199 49.8003 146.725 49.5376C147.513 49.2749 148.213 49.45 148.388 49.8879L153.117 59.8701C153.292 60.3079 154.168 60.3079 155.043 59.8701C155.919 59.4323 156.444 58.6442 156.269 58.2064L153.204 50.9386C153.117 50.6759 153.204 50.3257 153.379 50.063C153.642 49.7127 153.992 49.45 154.343 49.2749C155.218 48.8371 156.006 48.9247 156.182 49.45L156.444 50.063L158.02 54.4412C158.196 54.879 158.808 55.2293 159.947 54.7039C161.786 53.8282 161.611 52.865 161.523 52.6023L160.297 48.049L149.264 11.0095Z" fill="white"/>
<path d="M149.264 11.0097L160.56 48.0492L161.786 52.69C161.873 52.9527 162.136 53.9159 160.209 54.7916C159.859 54.9667 159.596 55.0543 159.246 55.0543C158.808 55.0543 158.458 54.8791 158.283 54.5289L156.707 50.1507L156.444 49.5377C156.269 49.2751 156.006 49.0999 155.656 49.0999C155.306 49.0999 154.956 49.1875 154.605 49.3626C154.255 49.5377 153.905 49.8004 153.642 50.1507C153.467 50.4134 153.379 50.7636 153.467 51.0263L156.444 58.2066C156.619 58.6444 156.094 59.4324 155.218 59.8703C154.868 60.0454 154.43 60.2205 153.992 60.2205C153.73 60.2205 153.379 60.133 153.204 59.8703L148.476 49.888C148.301 49.5377 147.863 49.3626 147.513 49.3626C147.25 49.3626 146.987 49.4502 146.812 49.5377C146.287 49.7129 145.849 50.0631 145.499 50.5885C145.324 50.8512 145.236 51.2015 145.411 51.4641L149.176 58.6444C149.264 58.9071 149.264 59.2573 149.001 59.52C148.738 59.8703 148.476 60.133 148.038 60.3081C147.6 60.5708 147.162 60.6583 146.725 60.6583C146.374 60.6583 146.024 60.5708 145.849 60.3081L143.747 56.8055L143.222 55.9299C143.047 55.6672 142.697 55.4921 142.346 55.5796C141.909 55.5796 141.558 55.6672 141.208 55.9299C140.858 56.105 140.508 56.3677 140.332 56.718C140.157 56.9807 140.157 57.2434 140.245 57.506L144.273 63.7231C144.36 63.9858 144.36 64.2485 144.185 64.4236C143.922 64.7738 143.485 65.1241 143.047 65.2117C142.784 65.2992 142.521 65.3868 142.259 65.3868C141.996 65.3868 141.733 65.2992 141.558 65.1241L138.931 61.4464C138.494 61.0086 137.968 60.7459 137.355 60.8335C136.567 60.8335 135.691 61.0962 134.991 61.4464L111.174 30.8867L149.264 11.0097ZM149.264 9.87134C149.089 9.87134 148.914 9.9589 148.739 10.0465L110.561 29.8359C110.035 30.0986 109.773 30.7991 110.123 31.3245C110.123 31.412 110.21 31.412 110.21 31.4996L134.028 62.0594C134.203 62.3221 134.553 62.4972 134.903 62.4972C135.079 62.4972 135.254 62.4096 135.429 62.4096C135.954 62.1469 136.655 61.9718 137.268 61.8842C137.53 61.8842 137.793 61.8842 137.968 62.0594L140.595 65.7371C140.945 66.2624 141.646 66.5251 142.259 66.5251C142.609 66.5251 143.047 66.4376 143.397 66.35C144.098 66.0873 144.711 65.6495 145.148 65.1241C145.586 64.5987 145.586 63.8106 145.236 63.1977L141.383 57.3309C141.646 57.0682 141.996 56.8931 142.434 56.8931L142.872 57.5936L144.973 61.0962C145.411 61.7091 146.112 62.0594 146.812 62.0594C147.425 62.0594 148.126 61.8842 148.651 61.534C149.176 61.2713 149.614 60.8335 149.964 60.3957C150.402 59.7827 150.49 59.0822 150.14 58.3817L146.462 51.3766C146.637 51.1139 146.9 50.9388 147.162 50.8512C147.25 50.8512 147.425 50.7636 147.513 50.7636L152.241 60.6583C152.591 61.2713 153.292 61.7091 153.992 61.6215C154.605 61.6215 155.218 61.4464 155.744 61.1837C157.145 60.3956 157.933 59.1698 157.495 58.119L154.518 51.0263C154.693 50.8512 154.868 50.6761 155.043 50.5885C155.131 50.5009 155.306 50.5009 155.481 50.4134L155.656 50.7636L157.232 55.1418C157.582 55.9299 158.371 56.4553 159.246 56.4553C159.772 56.4553 160.297 56.2802 160.735 56.105C163.362 54.8791 163.011 53.1279 162.924 52.69L161.698 48.1367L150.402 11.0097C150.14 10.2216 149.702 9.87134 149.264 9.87134Z" fill="#231F20"/>
<path d="M160.034 48.4871H159.947L135.341 44.3716C135.166 44.3716 134.991 44.1965 134.904 44.1089C134.816 43.9338 134.816 43.7586 134.904 43.5835L148.301 11.7978C148.388 11.5351 148.739 11.36 149.001 11.4476C149.264 11.5351 149.439 11.8854 149.352 12.1481C149.352 12.1481 149.352 12.2357 149.264 12.2357L136.129 43.4084L160.034 47.4363C160.297 47.5239 160.56 47.7866 160.472 48.0493C160.472 48.312 160.209 48.5746 160.034 48.4871Z" fill="#231F20"/>
<path d="M138.406 37.2789H138.319L110.999 31.3245C110.736 31.237 110.473 30.9743 110.561 30.7116C110.648 30.4489 110.911 30.1862 111.261 30.2738L138.581 36.2281C138.844 36.3157 139.107 36.5784 139.019 36.9286C138.844 37.1037 138.669 37.2789 138.406 37.2789Z" fill="#231F20"/>
<path d="M134.904 61.8847C134.816 61.8847 134.728 61.8847 134.641 61.7971C134.378 61.7096 134.203 61.3593 134.378 61.0966L142.171 44.8097C142.346 44.5471 142.609 44.3719 142.959 44.5471C143.222 44.7222 143.397 44.9849 143.222 45.3351L135.429 61.622C135.254 61.7971 135.079 61.8847 134.904 61.8847Z" fill="#231F20"/>
</svg>
