<svg width="155" height="183" viewBox="0 0 155 183" fill="none" xmlns="http://www.w3.org/2000/svg">
<path d="M76.1983 154.264L119.718 130.447C109.648 115.123 108.947 106.367 107.284 94.2831C101.767 55.4047 63.2389 30.6242 33.2921 10.2218C30.7527 8.47055 28.1258 6.80683 25.4113 5.31825C22.259 3.56697 13.4151 -1.68685 11.0508 3.21672C8.86174 7.94517 14.3783 16.4389 17.0928 19.8538C15.2539 17.1394 13.2399 14.5125 11.0508 12.1482C10.3503 11.2726 9.47471 10.5721 8.33638 10.2218C6.32241 9.78401 4.39599 11.7104 4.04573 13.7244C3.69548 15.7383 4.57113 17.7523 5.53433 19.5912C7.81099 24.0569 10.5255 28.1724 13.8529 31.8501C11.6638 29.3983 3.52036 20.029 3.69548 29.4859C3.87061 35.4402 6.32239 41.1318 10.613 45.2473C8.68662 43.5836 6.67265 42.1826 4.57112 40.8691C3.95818 40.4313 3.1701 40.1687 2.38203 40.3438C1.59395 40.7816 0.981009 41.5697 0.893445 42.4453C-0.507576 48.4872 2.90742 52.8654 5.18408 58.0317C6.93536 62.0596 7.98612 65.9124 10.3503 69.7652C18.6689 83.863 27.2502 93.5826 36.7071 106.892C39.334 110.045 76.1108 154.352 76.1983 154.264Z" fill="white"/>
<path d="M76.2858 154.877C75.848 154.877 75.0599 153.914 69.8937 147.697C66.3911 143.494 61.6627 137.89 56.9342 132.111C52.4685 126.769 37.9329 109.169 36.3567 106.98C33.2044 102.514 30.0521 98.3987 27.075 94.4583C21.1206 86.5776 15.5165 79.1346 10 69.7653C8.599 67.3135 7.46067 64.7742 6.49747 62.1473C5.97209 60.8338 5.44671 59.4328 4.83377 57.9442C4.39595 56.8934 3.78298 55.8427 3.2576 54.7919C1.24363 50.764 -0.682769 46.9987 0.455561 42.0076C0.805816 40.6066 1.41877 39.7309 2.29441 39.4683C3.25761 39.2931 4.13323 39.5558 4.92131 40.0812C5.53425 40.4314 6.14721 40.8693 6.76015 41.2195C4.48349 37.6294 3.17005 33.5139 3.08249 29.2233C3.08249 26.5964 3.60787 25.1078 4.83377 24.5824C5.88453 24.2321 7.11041 24.67 8.51143 25.5456C7.19797 23.6192 6.05964 21.6052 5.00888 19.5913C4.04568 17.6649 3.17005 15.4758 3.43274 13.2867C3.69543 11.8856 4.39594 10.6597 5.53427 9.87167C6.32234 9.25872 7.37309 9.08359 8.42386 9.25872C9.47463 9.60898 10.5254 10.2219 11.2259 11.0976C10 8.1204 9.29951 4.9681 10.4378 2.60388C10.8757 1.55311 11.7513 0.852596 12.8021 0.502341C16.3046 -0.635989 21.9087 2.42875 24.8859 4.09246L25.5864 4.44271C28.3009 5.9313 30.9278 7.59501 33.4671 9.43385L36.9697 11.7981C66.1284 31.6751 102.38 56.2805 107.721 93.9329L107.984 96.0345C109.473 106.98 110.698 115.561 120.068 129.834C120.155 130.009 120.155 130.184 120.155 130.359C120.068 130.535 119.98 130.622 119.805 130.71L76.461 154.79C76.461 154.877 76.3734 154.877 76.2858 154.877ZM2.99492 40.6941C2.90736 40.6941 2.81979 40.6941 2.73223 40.6941C2.11928 40.8693 1.85659 41.6573 1.68146 42.3578C0.630696 46.9112 2.46954 50.5013 4.39595 54.3541C4.92133 55.4049 5.4467 56.4556 5.97208 57.5064C6.58503 58.9074 7.19798 60.3084 7.72336 61.7095C8.599 64.2488 9.73732 66.7882 11.1383 69.1524C16.5673 78.4341 22.2589 85.8771 28.2133 93.6702C31.1905 97.6106 34.3428 101.726 37.4951 106.192C40.122 109.87 73.1335 149.361 76.461 153.389L119.017 130.097C109.823 115.911 108.597 107.243 107.108 96.2972L106.846 94.2832C101.592 57.1561 65.603 32.7258 36.6194 13.024L33.1169 10.6597C30.5775 8.90847 28.0382 7.24475 25.3237 5.75617L24.6232 5.40592C21.9963 4.0049 16.4797 0.940165 13.5026 1.90337C12.7145 2.16606 12.1016 2.69144 11.7513 3.47952C10.2627 6.54425 12.6269 11.8856 15.3414 16.0887C16.2171 17.227 17.0051 18.3654 17.7932 19.5037C17.9683 19.7664 17.9683 20.1166 17.7056 20.3793C17.4429 20.642 17.0927 20.5545 16.83 20.2918C16.7424 20.1166 15.6917 18.8907 14.4658 16.9643C13.3275 15.4758 12.1016 13.9872 10.7881 12.5862C10.1751 11.7981 9.38706 11.1851 8.42386 10.8349C7.72335 10.7473 7.11042 10.8349 6.49747 11.2727C5.62183 11.8856 5.09644 12.7613 4.92131 13.812C4.65862 15.6509 5.4467 17.5773 6.32233 19.3286C8.51143 23.7068 11.3135 27.7347 14.5533 31.4124C14.816 31.6751 14.7285 32.0253 14.5533 32.288C14.2906 32.5507 13.9404 32.4631 13.6777 32.2004L13.5901 32.1129C8.51145 26.4212 6.4099 25.6332 5.53427 25.9834C4.83375 26.2461 4.57106 27.472 4.57106 29.486C4.65862 35.2652 7.11042 40.7817 11.3135 44.8096C11.4886 45.0723 11.401 45.5101 11.1383 45.6853C10.9632 45.8604 10.7005 45.8604 10.4378 45.6853C8.599 44.0216 6.58502 42.6205 4.48349 41.3071C3.95811 40.9568 3.5203 40.7817 2.99492 40.6941Z" fill="#231F20"/>
<path d="M151.153 182.197L153.78 181.934C153.78 181.934 126.197 118.188 125.234 118.713C124.271 119.239 67.7922 154.089 67.7922 154.089L79.9636 182.197H151.153Z" fill="#231F20"/>
<path d="M151.153 182.898H80.0511C79.7884 182.898 79.6133 182.723 79.5257 182.548L67.3544 154.44C67.2668 154.177 67.3544 153.827 67.6171 153.652C69.8937 152.251 124.096 118.801 125.059 118.276C125.234 118.188 125.409 118.188 125.584 118.276C126.898 118.714 142.046 153.126 154.393 181.847C154.568 182.197 154.393 182.548 154.043 182.635C153.955 182.635 153.955 182.723 153.867 182.723L151.24 182.986L151.153 182.898ZM80.4014 181.672H151.065L152.904 181.497C142.747 157.942 127.511 123.53 125.146 119.589C120.943 122.129 87.2314 142.969 68.6678 154.44L80.4014 181.672Z" fill="#231F20"/>
</svg>
