<svg width="38" height="87" viewBox="0 0 38 87" fill="none" xmlns="http://www.w3.org/2000/svg">
<path d="M36.7353 86.0951C36.7353 86.0951 28.8546 20.1595 21.149 12.9793C11.9548 4.39805 3.63618 -1.38115 2.06003 3.52242C0.483881 8.42599 -0.91714 16.5694 11.692 25.7636L9.8532 42.0505C9.8532 42.0505 -2.49328 50.5442 3.89888 77.5138" fill="white"/>
<path d="M36.7352 86.6209C36.4725 86.6209 36.2098 86.4458 36.2098 86.0955C36.1223 85.395 28.2415 20.2475 20.7986 13.2424C9.50285 2.73476 5.38736 1.77156 3.81121 2.20938C3.19826 2.38451 2.76045 2.9099 2.58532 3.52285C0.834044 9.12694 0.308671 16.6574 11.9547 25.1511C12.1298 25.2387 12.2173 25.5014 12.2173 25.6765L10.3785 41.9634C10.3785 42.1385 10.2909 42.2261 10.1158 42.4012C10.0282 42.4887 -1.79287 51.07 4.42417 77.2516C4.51173 77.5143 4.3366 77.8645 3.98635 77.9521C3.63609 78.0397 3.37338 77.8645 3.28582 77.5143C-2.75608 52.1208 7.57646 42.9266 9.24018 41.6131L10.9915 25.8516C-0.917228 17.0077 -0.391839 9.12691 1.447 3.17257C1.70969 2.20937 2.49776 1.33374 3.46096 1.07105C6.52569 0.282974 12.5676 4.04821 21.4115 12.3668C29.2047 19.6346 36.9103 83.2059 37.173 85.8328C37.2606 86.3582 37.0855 86.6209 36.7352 86.6209Z" fill="#231F20"/>
</svg>
