<svg width="143" height="216" viewBox="0 0 143 216" fill="none" xmlns="http://www.w3.org/2000/svg">
<path d="M89.7365 214.24L5.67524 193.575C2.26025 192.699 0.246292 189.284 1.03437 185.957L45.3417 6.10054C46.2173 2.68555 49.6323 0.671584 52.9597 1.45966L137.021 22.1247C140.436 23.0004 142.45 26.4154 141.662 29.7428L97.3546 209.599C96.5665 213.014 93.1515 215.115 89.7365 214.24Z" fill="white"/>
<path d="M91.2246 215.116C90.6993 215.116 90.0863 215.028 89.5609 214.941L5.41211 194.276C1.73443 193.4 -0.542231 189.635 0.333407 185.87L44.6407 6.01343C45.5163 2.33575 49.2816 0.0590873 53.0468 0.934725L137.196 21.5998C140.873 22.4754 143.15 26.2407 142.274 30.0059L97.967 209.862C97.179 212.927 94.4645 215.116 91.2246 215.116ZM5.76236 192.962L89.8236 213.627C92.8884 214.415 95.9531 212.489 96.7412 209.424L140.961 29.5681C141.749 26.5034 139.823 23.4386 136.845 22.6506L52.7841 1.9855C49.7194 1.19743 46.6547 3.12382 45.8666 6.18855L1.5593 186.045C0.858785 189.109 2.69763 192.262 5.76236 192.962Z" fill="#231F20"/>
<path d="M47.5545 18.5172L11.1611 166.375L97.461 187.616L133.854 39.7589L47.5545 18.5172Z" fill="#D1D3D4"/>
<path d="M57.3378 200.055L40.8758 196.027C38.7743 195.501 37.5484 193.4 38.0737 191.298L39.6499 184.994C40.1753 182.892 42.2768 181.666 44.3783 182.192L60.8403 186.22C62.9419 186.745 64.1678 188.847 63.6424 190.948L62.0662 197.253C61.5408 199.267 59.4393 200.58 57.3378 200.055Z" fill="white"/>
<path d="M58.3008 200.843C57.9505 200.843 57.6003 200.755 57.25 200.755L40.788 196.727C38.3363 196.114 36.9352 193.75 37.4606 191.298L39.0368 184.994C39.6497 182.542 42.0139 181.141 44.4657 181.666L60.8401 185.694C63.2919 186.307 64.693 188.672 64.1676 191.123L62.5914 197.428C62.1536 199.354 60.4023 200.843 58.3008 200.843ZM41.1383 195.414L57.5127 199.442C59.264 199.88 61.0153 198.829 61.4531 196.99L63.0292 190.686C63.4671 188.934 62.4163 187.183 60.665 186.745L44.2906 182.717C42.5393 182.279 40.788 183.33 40.3502 185.081L38.7741 191.298C38.2487 193.225 39.2995 194.976 41.1383 195.414C41.0507 195.414 41.0507 195.414 41.1383 195.414Z" fill="#D1D3D4"/>
<path d="M108.738 24.5771C108.65 24.5771 108.65 24.5771 108.563 24.5771L84.0449 18.5352C83.6946 18.4476 83.5195 18.0973 83.607 17.8346C83.6946 17.4844 84.0449 17.3093 84.3076 17.3968L108.913 23.4387C109.263 23.5263 109.438 23.8765 109.351 24.1392C109.263 24.4019 109.088 24.6646 108.738 24.5771Z" fill="#D1D3D4"/>
<path d="M80.7174 17.7469H80.5423L77.2148 16.9588C76.8646 16.8712 76.6895 16.6085 76.6895 16.2583C76.777 15.908 77.0397 15.7329 77.39 15.7329H77.4775L80.805 16.521C81.1552 16.6085 81.3303 16.9588 81.2428 17.2215C81.2428 17.5717 81.0676 17.7469 80.7174 17.7469Z" fill="#D1D3D4"/>
<path d="M89.1235 150.231L37.8111 138.322C33.2578 137.272 30.4557 132.718 31.5065 128.165L32.3821 124.487C33.4329 119.934 37.9862 117.132 42.5395 118.183L93.8519 130.091C98.4052 131.142 101.207 135.696 100.156 140.249L99.2809 143.927C98.2301 148.392 93.6768 151.282 89.1235 150.231Z" fill="#231F20"/>
<path d="M91.0498 151.019C90.3493 151.019 89.6488 150.931 89.0359 150.756L37.7235 138.847C32.8199 137.709 29.8427 132.893 30.981 127.989L31.8567 124.312C32.995 119.408 37.8986 116.431 42.7146 117.569L94.027 129.478C98.9306 130.616 101.908 135.52 100.769 140.336L99.8938 144.013C98.9306 148.129 95.2529 151.019 91.0498 151.019ZM40.6131 118.532C37.0229 118.532 33.8707 121.072 32.995 124.574L32.1194 128.252C31.1562 132.455 33.7831 136.658 37.9861 137.621L89.2985 149.53C93.5016 150.493 97.7047 147.866 98.6679 143.663L99.5435 139.986C100.507 135.782 97.8798 131.579 93.6767 130.616L42.3643 118.795C41.8389 118.62 41.226 118.532 40.6131 118.532Z" fill="#231F20"/>
<path d="M51.1208 127.377C50.9457 127.026 50.683 126.676 50.3327 126.413C49.9825 126.151 49.5446 125.976 49.1944 125.888C48.9317 125.801 48.669 125.801 48.4063 125.801C48.1436 125.801 47.9685 125.888 47.7058 125.888C47.4431 125.976 47.268 126.063 47.0929 126.326C46.9177 126.501 46.8302 126.764 46.7426 127.026C46.655 127.377 46.7426 127.814 46.9177 128.077C47.1804 128.427 47.5307 128.69 47.8809 128.865C48.3188 129.128 48.7566 129.391 49.1944 129.653C49.6322 129.916 50.07 130.266 50.5078 130.617C50.8581 130.967 51.2084 131.405 51.3835 131.93C51.5586 132.543 51.5586 133.156 51.3835 133.769C51.2959 134.382 51.0332 134.907 50.5954 135.433C50.2452 135.87 49.8073 136.221 49.282 136.396C48.7566 136.658 48.2312 136.746 47.7058 136.834C47.0928 136.834 46.5675 136.834 45.9545 136.658C45.1664 136.483 44.4659 136.221 43.853 135.783C43.24 135.345 42.6271 134.732 42.2769 134.031L44.2908 132.806C44.4659 133.243 44.8162 133.681 45.1665 134.031C45.5167 134.382 45.9545 134.557 46.4799 134.732C46.7426 134.82 47.0053 134.82 47.268 134.82C47.5307 134.82 47.7934 134.732 48.056 134.644C48.3187 134.557 48.4939 134.382 48.669 134.207C48.8441 134.032 49.0193 133.769 49.0193 133.506C49.1068 133.068 49.0193 132.718 48.8441 132.368C48.5815 132.018 48.2312 131.755 47.8809 131.492C47.5307 131.229 47.0929 130.967 46.5675 130.704C46.1297 130.441 45.6918 130.091 45.254 129.741C44.9038 129.391 44.5535 128.953 44.3784 128.427C44.2033 127.814 44.2033 127.202 44.3784 126.589C44.4659 125.976 44.7286 125.45 45.1665 125.012C45.5167 124.575 45.9545 124.312 46.4799 124.049C47.0053 123.874 47.5307 123.699 48.1436 123.699C48.7566 123.699 49.2819 123.699 49.8949 123.874C50.5078 124.049 51.1208 124.224 51.7337 124.575C52.3467 124.925 52.7845 125.363 53.1348 125.888L51.1208 127.377Z" fill="white"/>
<path d="M55.7615 125.625L63.9925 127.464L63.5547 129.478L57.5128 128.077L56.8123 131.142L62.5039 132.455L62.0661 134.469L56.3745 133.156L55.5864 136.483L61.891 137.884L61.4532 139.898L52.9595 137.972L55.7615 125.625Z" fill="white"/>
<path d="M66.3569 127.99L69.2465 128.69L73.0993 139.198L75.2008 130.003L77.3899 130.529L74.5879 142.875L71.7858 142.262L67.8455 131.404L65.6564 140.861L63.4673 140.336L66.3569 127.99Z" fill="white"/>
<path d="M80.2793 131.23L85.1829 132.368C85.971 132.543 86.7591 132.806 87.4596 133.244C88.8606 134.032 89.8238 135.52 90.174 137.096C90.3492 138.06 90.3492 139.023 90.0865 139.986C89.7362 141.825 88.5103 143.314 86.8466 144.189C86.1461 144.539 85.2705 144.802 84.4824 144.89C83.6943 144.977 82.9063 144.89 82.1182 144.715L77.4773 143.664L80.2793 131.23ZM81.7679 142.438C82.3809 142.613 83.0814 142.701 83.7819 142.613C84.3948 142.613 85.0078 142.438 85.5332 142.263C86.0586 142 86.4964 141.65 86.9342 141.212C87.372 140.687 87.6347 140.074 87.8098 139.373C87.985 138.76 87.9849 138.06 87.8974 137.359C87.8098 136.834 87.5471 136.308 87.1969 135.871C86.8466 135.433 86.4088 135.083 85.8834 134.82C85.358 134.557 84.7451 134.294 84.0446 134.119L82.0306 133.682L80.1042 142.088L81.7679 142.438Z" fill="white"/>
</svg>
